<svg id="svg" version="1.1" xmlns="http://www.w3.org/2000/svg" xmlns:xlink="http://www.w3.org/1999/xlink" width="400" height="299.7160243407708" viewBox="0, 0, 400,299.7160243407708"><g id="svgg"><path id="path0" d="M178.417 39.763 C 176.186 40.073,175.231 40.257,174.015 40.608 C 172.618 41.013,168.318 42.991,167.876 43.433 C 167.748 43.562,167.575 43.667,167.492 43.667 C 167.234 43.667,163.998 46.859,163.017 48.081 C 161.570 49.884,160.199 52.223,160.096 53.064 C 160.072 53.258,159.848 54.054,159.597 54.833 C 157.630 60.946,159.063 69.276,162.821 73.575 C 165.766 76.944,168.051 78.829,170.250 79.703 C 170.617 79.849,171.408 80.196,172.008 80.475 C 176.608 82.613,185.243 82.375,189.655 79.989 C 190.152 79.720,190.628 79.500,190.712 79.500 C 191.495 79.500,195.494 76.230,196.747 74.566 C 197.238 73.913,197.821 73.185,198.041 72.947 C 199.313 71.574,201.163 67.039,201.670 64.049 C 203.017 56.103,198.317 46.236,191.583 42.875 C 191.217 42.692,190.503 42.312,189.996 42.029 C 187.251 40.498,181.384 39.350,178.417 39.763 M237.805 60.346 C 237.101 60.421,235.901 60.637,235.138 60.826 C 234.375 61.016,233.553 61.203,233.311 61.242 C 231.272 61.571,227.854 63.701,224.917 66.475 C 217.643 73.344,216.629 85.422,222.628 93.742 C 223.514 94.971,225.990 97.482,226.667 97.838 C 226.987 98.006,227.438 98.321,227.667 98.537 C 229.099 99.887,233.405 101.753,236.197 102.232 C 242.291 103.279,248.403 101.945,252.776 98.615 C 253.340 98.185,253.847 97.833,253.902 97.833 C 254.477 97.833,257.846 94.078,258.613 92.583 C 258.801 92.217,259.233 91.409,259.574 90.789 C 262.134 86.119,262.590 79.524,260.710 74.333 C 260.310 73.227,258.448 69.648,258.042 69.204 C 257.927 69.079,257.833 68.908,257.833 68.824 C 257.833 68.534,254.579 65.414,253.167 64.348 C 251.145 62.824,248.631 61.521,247.240 61.278 C 246.971 61.231,246.167 61.039,245.454 60.852 C 243.145 60.245,240.443 60.067,237.805 60.346 M74.381 115.017 C 65.230 116.082,58.314 122.069,55.725 131.167 C 55.337 132.530,55.270 139.240,55.632 140.500 C 56.688 144.173,57.722 146.356,59.514 148.696 C 60.479 149.955,62.730 152.333,62.957 152.333 C 63.072 152.333,63.167 152.411,63.167 152.505 C 63.167 152.600,63.298 152.727,63.458 152.788 C 63.619 152.848,64.237 153.225,64.833 153.624 C 71.376 158.009,80.283 158.479,86.917 154.789 C 90.420 152.841,91.199 152.230,93.317 149.769 C 97.526 144.879,99.188 139.013,98.250 132.363 C 97.553 127.414,93.765 121.673,89.167 118.594 C 87.384 117.400,85.500 116.416,84.552 116.184 C 84.203 116.098,83.197 115.840,82.318 115.610 C 79.622 114.904,77.021 114.709,74.381 115.017 M267.934 139.850 C 267.210 139.926,266.010 140.148,265.267 140.342 C 264.525 140.537,263.705 140.726,263.446 140.763 C 262.392 140.912,259.639 142.309,257.958 143.548 C 256.527 144.603,253.501 147.365,253.499 147.618 C 253.499 147.691,253.291 147.975,253.038 148.250 C 252.183 149.177,250.181 153.197,249.665 155.019 C 248.080 160.625,248.841 166.796,251.671 171.276 C 252.035 171.853,252.333 172.391,252.333 172.472 C 252.333 173.030,255.622 176.563,256.933 177.412 C 257.400 177.715,258.134 178.232,258.564 178.560 C 264.846 183.355,276.297 183.169,282.917 178.164 C 283.467 177.748,284.134 177.270,284.399 177.101 C 286.573 175.717,289.509 171.490,290.853 167.806 C 292.813 162.436,292.264 155.564,289.501 150.882 C 289.317 150.570,289.167 150.233,289.167 150.134 C 289.167 149.420,285.840 145.780,283.500 143.934 C 279.513 140.787,273.644 139.248,267.934 139.850 M114.500 171.766 C 112.302 172.022,111.154 172.244,109.719 172.690 C 108.099 173.194,105.393 174.399,104.750 174.903 C 104.567 175.047,103.666 175.718,102.749 176.394 C 95.837 181.489,92.822 190.909,95.443 199.220 C 96.051 201.149,98.615 206.000,99.026 206.000 C 99.103 206.000,99.167 206.098,99.167 206.218 C 99.167 206.497,101.697 208.821,103.233 209.952 C 103.884 210.432,104.492 210.883,104.583 210.955 C 107.887 213.551,115.690 214.856,121.054 213.711 C 126.519 212.543,132.786 207.936,134.947 203.497 C 137.226 198.818,137.790 196.506,137.604 192.606 C 137.282 185.862,134.800 181.006,129.152 176.065 C 126.018 173.325,118.942 171.248,114.500 171.766 M306.083 195.268 C 305.717 195.306,304.967 195.409,304.417 195.497 C 303.867 195.586,303.117 195.704,302.750 195.760 C 300.828 196.053,296.408 197.989,295.583 198.899 C 295.492 199.001,295.004 199.399,294.500 199.786 C 286.356 206.027,283.982 217.208,288.866 226.324 C 290.311 229.023,292.290 231.394,294.106 232.603 C 294.576 232.917,295.139 233.346,295.356 233.557 C 296.507 234.676,300.443 236.481,303.000 237.062 C 311.423 238.976,320.333 235.699,325.542 228.771 C 325.885 228.314,326.167 227.879,326.167 227.805 C 326.167 227.731,326.538 227.024,326.991 226.233 C 330.320 220.427,330.409 212.769,327.216 206.833 C 326.797 206.054,326.340 205.192,326.200 204.917 C 324.338 201.248,317.144 196.232,313.039 195.739 C 312.622 195.689,311.918 195.579,311.476 195.495 C 310.534 195.317,307.046 195.170,306.083 195.268 M206.417 209.768 C 201.073 210.314,196.516 212.483,192.708 216.293 C 191.677 217.324,190.829 218.262,190.824 218.376 C 190.819 218.490,190.523 218.996,190.165 219.500 C 182.294 230.589,188.247 247.037,201.583 251.051 C 206.343 252.484,212.154 252.424,215.442 250.909 C 215.731 250.776,216.131 250.667,216.332 250.667 C 218.901 250.667,226.137 244.149,227.572 240.543 C 227.782 240.015,228.145 239.171,228.377 238.667 C 231.038 232.901,230.082 224.452,226.146 218.936 C 221.721 212.736,213.728 209.021,206.417 209.768 " stroke="none" fill="#e4dc3c" fill-rule="evenodd"></path><path id="path1" d="M333.500 1.002 C 320.169 2.578,311.326 15.865,315.276 28.386 C 317.449 35.276,324.619 41.894,330.833 42.745 C 331.246 42.802,332.033 42.932,332.583 43.035 C 333.935 43.288,337.960 43.283,339.500 43.026 C 340.188 42.912,341.012 42.779,341.333 42.731 C 347.535 41.812,355.473 34.305,356.771 28.131 C 357.367 25.293,357.509 24.131,357.507 22.083 C 357.504 20.000,357.461 19.568,357.010 17.167 C 355.166 7.336,344.127 -0.254,333.500 1.002 M254.478 14.334 C 251.369 14.692,247.801 15.958,245.500 17.517 C 244.904 17.921,244.192 18.364,243.917 18.501 C 243.026 18.945,240.527 21.505,239.541 22.984 C 239.016 23.772,238.488 24.519,238.369 24.644 C 237.834 25.205,236.614 28.037,236.071 29.978 C 233.591 38.832,237.591 48.724,245.583 53.501 C 245.950 53.720,246.288 53.954,246.336 54.021 C 246.456 54.191,248.172 54.880,249.750 55.390 C 264.995 60.322,279.554 49.330,278.466 33.711 C 277.646 21.933,266.521 12.947,254.478 14.334 M97.667 30.773 C 83.801 32.072,74.789 45.611,79.101 58.667 C 83.534 72.087,100.156 77.588,111.781 69.482 C 113.768 68.096,116.666 65.500,116.667 65.106 C 116.667 65.026,116.920 64.614,117.230 64.189 C 121.665 58.114,122.466 49.607,119.219 43.083 C 117.398 39.426,115.281 36.988,111.797 34.534 C 107.881 31.776,102.434 30.326,97.667 30.773 M287.000 80.106 C 282.998 80.481,278.958 82.060,275.945 84.427 C 275.135 85.063,274.310 85.696,274.110 85.833 C 273.404 86.320,270.833 89.303,270.833 89.635 C 270.833 89.724,270.430 90.479,269.938 91.313 C 266.294 97.479,266.547 106.417,270.528 112.192 C 270.696 112.436,270.833 112.725,270.833 112.835 C 270.833 113.514,273.870 116.548,276.482 118.479 C 282.747 123.112,291.785 123.669,299.187 119.878 C 300.160 119.380,301.180 118.772,301.454 118.528 C 301.728 118.283,302.581 117.570,303.351 116.942 C 305.160 115.467,307.667 112.515,307.667 111.858 C 307.667 111.771,307.917 111.255,308.224 110.713 C 311.814 104.362,311.081 94.804,306.547 88.833 C 305.676 87.688,303.829 85.667,303.653 85.667 C 303.510 85.667,301.698 84.270,301.500 84.007 C 301.454 83.946,300.967 83.628,300.417 83.300 C 296.345 80.872,291.396 79.694,287.000 80.106 M186.250 81.184 C 183.996 81.884,179.955 82.169,177.381 81.809 C 175.160 81.499,172.160 82.895,168.183 86.090 C 162.574 90.595,159.928 99.565,161.914 107.336 C 163.634 114.070,171.118 121.262,177.417 122.233 C 177.692 122.276,178.517 122.406,179.250 122.522 C 182.224 122.993,188.278 122.552,190.148 121.729 C 192.247 120.804,194.043 119.886,195.014 119.241 C 196.085 118.529,196.420 118.237,198.805 115.943 C 203.667 111.267,205.630 102.823,203.499 95.750 C 203.306 95.108,203.071 94.266,202.978 93.879 C 202.679 92.641,200.918 89.891,199.014 87.693 C 195.855 84.045,188.733 80.413,186.250 81.184 M216.750 144.272 C 211.221 144.871,206.094 147.343,202.943 150.929 C 202.224 151.747,201.468 152.604,201.263 152.833 C 200.368 153.835,199.136 156.038,198.402 157.948 C 193.270 171.295,202.695 185.489,217.422 186.591 C 220.414 186.815,226.494 185.687,227.744 184.675 C 227.839 184.598,228.600 184.191,229.436 183.771 C 232.029 182.466,233.641 181.039,236.311 177.686 C 241.027 171.765,241.562 161.592,237.512 154.854 C 235.661 151.773,230.521 146.843,229.148 146.831 C 229.021 146.830,228.588 146.641,228.185 146.411 C 225.645 144.959,220.056 143.913,216.750 144.272 M149.250 156.492 C 146.929 156.766,143.277 157.842,141.886 158.663 C 141.571 158.848,141.233 159.000,141.134 159.000 C 140.365 159.000,136.683 162.016,135.257 163.813 C 134.703 164.512,134.124 165.196,133.970 165.333 C 132.516 166.634,130.377 172.259,130.067 175.602 L 129.960 176.750 131.453 178.268 C 135.225 182.101,137.236 186.604,137.588 192.000 L 137.702 193.750 138.642 194.432 C 139.160 194.808,139.846 195.250,140.167 195.415 C 140.487 195.580,140.938 195.819,141.167 195.947 C 152.999 202.540,169.296 196.002,172.404 183.417 C 174.709 174.080,171.464 164.933,164.148 160.141 C 159.898 157.358,154.056 155.927,149.250 156.492 " stroke="none" fill="#f3740c" fill-rule="evenodd"></path><path id="path2" d="M1.833 131.917 L 1.833 262.167 19.250 262.167 L 36.667 262.167 36.667 131.917 L 36.667 1.667 19.250 1.667 L 1.833 1.667 1.833 131.917 M1.944 263.278 C 1.883 263.339,1.833 271.176,1.833 280.694 L 1.833 298.000 200.167 298.000 L 398.500 298.000 398.500 280.583 L 398.500 263.167 200.278 263.167 C 91.256 263.167,2.006 263.217,1.944 263.278 " stroke="none" fill="#8c8c8c" fill-rule="evenodd"></path><path id="path3" d="M0.611 0.444 C 0.550 0.506,0.500 67.781,0.500 149.944 L 0.500 299.333 200.050 299.333 C 355.033 299.333,399.645 299.289,399.800 299.133 C 399.953 298.980,400.000 294.607,400.000 280.467 L 400.000 262.000 219.000 262.000 L 38.000 262.000 38.000 131.167 L 38.000 0.333 19.361 0.333 C 9.110 0.333,0.672 0.383,0.611 0.444 M36.667 131.917 L 36.667 262.167 19.250 262.167 L 1.833 262.167 1.833 131.917 L 1.833 1.667 19.250 1.667 L 36.667 1.667 36.667 131.917 M398.500 280.583 L 398.500 298.000 200.167 298.000 L 1.833 298.000 1.833 280.694 C 1.833 271.176,1.883 263.339,1.944 263.278 C 2.006 263.217,91.256 263.167,200.278 263.167 L 398.500 263.167 398.500 280.583 " stroke="none" fill="#7c7c7c" fill-rule="evenodd"></path><path id="path4" d="" stroke="none" fill="#c4a86c" fill-rule="evenodd"></path></g></svg>